<?xml version="1.0" encoding="utf-8" standalone="no"?>
<svg version="1.1" viewBox="0 0 160 160" xmlns="http://www.w3.org/2000/svg">
  <rect style="fill:#ffffff;opacity:0" width="160" height="160"/>
  <path style="fill:#d58426;stroke:#b17024;stroke-width:2" d="m 26,17 c -7.5,0 -13,5.5 -13,13 v 108 c 0,7.5 5.5,13 13,13 h 108 c 7.5,0 13,-5.5 13,-13 V 30 c 0,-7.5 -5.5,-13 -13,-13 z"/>
  <rect style="fill:#231f20;fill-opacity:0.2;stroke-width:2" x="27" y="33" width="106" height="106"/>
  <rect style="fill:#ffffff;stroke-width:2" x="27" y="29" width="106" height="106"/>
  <path style="opacity:0.2;fill:#231f20;stroke-width:2" d="M 106,12 H 54 v 16.66 c 0,5.66 3.68,10 9.34,10 h 33.32 c 5.66,0 9.34,-4.34 9.34,-10 z"/>
  <path style="fill:#4f5d73;stroke-width:2" d="M 106,8 H 54 v 16.66 c 0,5.66 3.68,10 9.34,10 h 33.32 c 5.66,0 9.34,-4.34 9.34,-10 z"/>
  <path style="fill:#000000;fill-opacity:0.8;stroke-width:2" d="m 38,96 h 28 v 28 H 38 Z m 24,4 H 42 v 20 h 20 z m -16,4 h 12 v 12 H 46 Z m 24,12 h 4 v 8 h -4 z m 8,0 h 8 v -12 h 4 v -4 h 4 v -4 h 4 v 16 h -4 v 4 h -4 v 4 h -4 v 4 h -8 z m 16,4 h 4 v -4 h 4 V 96 h -4 v -4 h -8 v 4 h -4 v 4 h -4 v 4 H 78 V 92 h 4 v -8 h 4 V 72 h 4 v 4 h 4 v 4 h 16 v -4 h -4 v -4 h 16 v 8 h -4 v -4 h -4 v 4 h 4 v 8 h 4 v 8 h -4 v 4 h -4 v -4 h -4 v 4 h -4 v 24 H 94 Z m 16,-24 v -4 h 4 v 4 h 4 v -4 h -4 v -8 h -4 v 4 H 98 v -4 h -4 v -4 h -4 v 8 h -4 v 4 h 4 v -4 h 8 v 4 h 8 v 4 z m 8,24 h 4 v 4 h -4 z m -8,-16 h 8 v 4 h 4 v 4 h -8 v 4 h -4 z m -40,-4 h 4 v 8 h -4 z m 0,-8 H 58 v -4 h 12 v 4 h 4 v 4 H 70 Z M 42,88 h 4 v -4 h -4 v -4 h -4 v -8 h 8 v 4 h 4 v 4 h -4 v 4 h 4 v 4 h -4 v 4 h -4 z m 4,-8 v -4 h -4 v 4 z m 28,4 h 4 v 4 H 74 Z M 58,80 h -4 v -8 h 12 v 4 h 12 v 4 H 66 v 4 h -8 z m 8,0 v -4 h -8 v 4 z m 32,-8 h 4 v 4 H 98 Z M 38,40 H 66 V 68 H 38 Z m 24,4 H 42 V 64 H 62 Z M 46,48 H 58 V 60 H 46 Z m 24,20 v -8 h 4 v -4 h 4 v -4 h -4 v 4 H 70 V 40 h 4 v 4 h 4 v 4 h 4 v -4 h 4 v -4 h 4 v 4 h -4 v 4 h 4 v 20 h -4 v -8 h -4 v 8 h -4 v -8 h -4 v 8 z M 86,56 v -4 h -4 v 4 z m 8,-16 h 28 V 68 H 94 Z m 24,4 H 98 v 20 h 20 z m -16,4 h 12 v 12 h -12 z"/>
</svg>
