<?xml version="1.0" encoding="utf-8" standalone="no"?>
<svg version="1.1" viewBox="0 0 86 86" xmlns="http://www.w3.org/2000/svg">
  <defs>
    <linearGradient id="gradient" x1="43" y1="80" x2="43" y2="3" gradientUnits="userSpaceOnUse">
      <stop offset="0" style="stop-color:#faad43;stop-opacity:1"/>
      <stop offset="1" style="stop-color:#ebe187;stop-opacity:1"/>
    </linearGradient>
  </defs>
  <rect style="fill:#ffffff;opacity:0" width="86" height="86"/>
  <path style="fill:url(#gradient)" d="m 85.7,84.3 c 0,0.75 -0.75,1.4 -1.4,1.4 H 1.7 C 0.9,85.7 0.3,85.1 0.3,84.3 V 1.7 C 0.3,0.9 0.9,0.3 1.7,0.3 h 82.6 c 0.786,0 1.4,0.614 1.4,1.4 z"/>
  <path style="fill:#d58426" d="m 69.65,9.68 h -53.3 c -3.66,0 -6.66,3 -6.66,6.66 v 53.31 c 0,3.66 3,6.66 6.66,6.66 h 53.3 c 3.66,0 6.66,-3 6.66,-6.66 V 16.34 c 0,-3.66 -3,-6.66 -6.66,-6.66 z"/>
  <rect style="fill:#231f20;fill-opacity:0.2" x="16.35" y="19.68" width="53.3" height="53.3"/>
  <rect style="fill:#ffffff" x="16.35" y="16.35" width="53.3" height="53.3"/>
  <path style="fill:#231f20;opacity:0.2" d="M 56,9 H 30 v 8.33 c 0,2.83 1.84,5 4.67,5 H 51.33 C 54.16,22.32 56,20.16 56,17.33 z"/>
  <path style="fill:#4f5d73" d="M 56,6 H 30 v 8.33 c 0,2.83 1.84,5 4.67,5 H 51.33 C 54.16,19.33 56,17.16 56,14.33 z"/>
  <path style="fill:#000000;fill-opacity:0.8" d="M 22,50 H 36 V 64 H 22 Z M 34,52 H 24 V 62 H 34 Z m -8,2 h 6 V 60 H 26 Z M 38,60 h 2 l 0,4 H 38 Z m 4,0 h 4 v -6 l 2,0 V 52 h 2 v -2 l 2,0 V 58 h -2 v 2 h -2 v 2 l -2,0 V 64 h -4 z m 8,2 h 2 v -2 h 2 V 50 L 52,50 v -2 h -4 v 2 L 46,50 v 2 h -2 v 2 L 42,54 v -6 h 2 v -4 h 2 v -6 h 2 v 2 h 2 v 2 h 8 L 58,40 h -2 v -2 h 8 v 4 h -2 l 0,-2 H 60 v 2 h 2 l 0,4 2,0 V 50 l -2,0 L 62,52 H 60 v -2 l -2,0 L 58,52 H 56 V 64 H 50 Z M 58,50 58,48 h 2 v 2 L 62,50 62,48 H 60 V 44 H 58 L 58,46 52,46 v -2 h -2 v -2 h -2 v 4 L 46,46 v 2 h 2 V 46 L 52,46 v 2 h 4 v 2 z m 4,12 H 64 v 2 h -2 z m -4,-8 L 62,54 62,56 H 64 v 2 h -4 v 2 H 58 Z M 38,52 h 2 l 0,4 H 38 Z m 0,-4 h -6 l 0,-2 6,0 V 48 h 2 l 0,2 L 38,50 Z M 24,46 26,46 V 44 h -2 l 0,-2 H 22 v -4 h 4 v 2 h 2 l 0,2 H 26 v 2 h 2 l 0,2 L 26,46 V 48 H 24 Z M 26,42 V 40 H 24 L 24,42 Z m 14,2 H 42 v 2 l -2,0 z m -8,-2 H 30 v -4 h 6 l 0,2 H 42 v 2 h -6 l 0,2 H 32 Z m 4,0 L 36,40 H 32 L 32,42 Z M 52,38 h 2 v 2 H 52 Z M 22,22 H 36 V 36 H 22 Z m 12,2 H 24 V 34 H 34 Z m -8,2 h 6 v 6 H 26 Z m 12,10 v -4 h 2 L 40,30 h 2 V 28 H 40 L 40,30 h -2 v -8 h 2 L 40,24 h 2 v 2 h 2 v -2 h 2 v -2 h 2 v 2 h -2 v 2 h 2 v 10 h -2 v -4 h -2 v 4 H 42 V 32 H 40 L 40,36 Z m 8,-6 v -2 h -2 v 2 z m 4,-8 H 64 V 36 H 50 Z m 12,2 H 52 v 10 h 10 z M 54,26 h 6 v 6 h -6 z"/>
</svg>
